<?xml version="1.0" encoding="utf-8"?>
<!-- Generator: Adobe Illustrator 22.1.0, SVG Export Plug-In . SVG Version: 6.00 Build 0)  -->
<svg version="1.1" id="Layer_1" xmlns="http://www.w3.org/2000/svg" xmlns:xlink="http://www.w3.org/1999/xlink" x="0px" y="0px"
	 viewBox="0 0 691 701" style="enable-background:new 0 0 691 701;" xml:space="preserve">
<style type="text/css">
	.st0{fill:#BDBBBB;}
	.st1{fill:#BDBFBF;}
	.st2{fill:#2A2A2A;}
	.st3{fill:#282828;}
	.st4{fill:#2B2B2B;}
	.st5{fill:#555555;}
	.st6{fill:#AAAAAA;}
	.st7{fill:#BFBFBF;}
	.st8{fill:#787B7B;}
	.st9{fill:#A8A8A8;}
	.st10{fill:#A9A9A9;}
	.st11{fill:#C2C2C2;}
	.st12{fill:#BDC0C0;}
	.st13{fill:#A6AAAA;}
	.st14{fill:#A7A5A5;}
	.st15{fill:#807F7F;}
</style>
<title>clock</title>
<g>
	<g>
		<path d="M331.2,701.7c-1,0-1.9,0-2.9,0c-0.4-1.2-1.4-0.7-2.2-0.8c-6-0.6-12-1-17.9-1.6c-15.7-1.6-31.2-4.4-46.4-8.4
			c-61.9-16.1-115.3-47-160.2-92.5c-26.8-27.2-48.5-58.1-65.3-92.4c-13.3-27.3-22.8-55.8-28.7-85.6c-3.2-16-5.1-32.2-6.2-48.5
			c-0.1-1.9-0.1-3.9-0.2-5.8c0-0.3-0.5-0.6-0.7-0.9c0-1.8,0-3.5,0-5.3c0.8-1.1,0.8-2.2,0-3.4c0-3.7,0-7.4,0-11
			c0.8-1.1,0.8-2.2,0-3.4c0-1.8,0-3.5,0-5.3c0.2-0.3,0.7-0.6,0.7-0.9c0.1-1.9,0.1-3.9,0.2-5.8c0.8-8.8,1.5-17.7,2.6-26.5
			c2.2-17.1,5.7-33.9,10.5-50.4c17.5-60.5,48.7-112.8,94.1-156.5c44.9-43.2,97.7-72.3,158.3-87c13.3-3.2,26.7-5.6,40.3-7.1
			c7-0.7,14-1.2,21-1.9c0.4,0,0.8-0.3,1.2-0.5c0.8,0,1.6,0,2.4,0c0.5,1,1.3,0.4,1.9,0.4c0.5-0.1,1-0.3,1.5-0.4c1.4,0,2.9,0,4.3,0
			c1.7,0.7,5,0.7,6.7,0c0.2,0,0.3,0,0.5,0c0.5,0.2,1,0.4,1.5,0.5c1.6,0,3.2,0,4.8,0c1.1-0.1,2.3,0.5,3.3-0.4c1.1,0,2.2,0,3.4,0
			c0.5,0.8,1,0.8,1.4,0c0.5,0,1,0,1.4,0c0.4,0.2,0.8,0.5,1.2,0.5c12.1,0.6,24.1,1.9,36,3.7c18.6,2.9,36.8,7.2,54.6,13.3
			C516.7,39,569,75.1,611.1,125.8c34,40.9,57.3,87.3,70.2,138.9c5.5,21.9,9,44.1,10,66.7c0,0.4,0.3,0.8,0.5,1.2c0,0.6,0,1.3,0,1.9
			c-0.1,0.5-0.3,1-0.4,1.4c0,0.5,0,1,0,1.4c0.1,0.5,0.3,1,0.4,1.5c0,8,0,16,0,24c-0.1,0.6-0.3,1.3-0.4,1.9c0,0.5,0,1,0,1.4
			c0.1,0.5,0.3,1,0.4,1.4c0,0.8,0,1.6,0,2.4c-0.2,0.4-0.4,0.8-0.5,1.2c-0.6,7.2-1.1,14.5-1.9,21.7c-1.6,15.4-4.5,30.7-8.4,45.7
			c-17.9,69-53,127.7-106.1,175.1c-57.2,51.1-124.2,80-200.7,86.6c-3,0.3-6.1,0.4-9.1,0.7c-0.4,0-0.8,0.4-1.2,0.6
			c-0.6,0-1.3,0-1.9,0c-0.2-0.9-0.9-0.4-1.4-0.4c-0.6,0.1-1.3,0.3-1.9,0.4c-1.3,0-2.6,0-3.8,0c-1-0.7-1.9-0.7-2.9,0
			c-3.5,0-7,0-10.6,0c-1.3-0.7-2.6-0.8-3.8,0c-1.1,0-2.2,0-3.4,0c-0.6-0.1-1.3-0.3-1.9-0.4C331.8,701.4,331.5,701.6,331.2,701.7z
			 M235.6,72.8C235.6,72.8,235.6,72.8,235.6,72.8c-0.8,0.3-1.6,0.6-2.4,1c0,0,0,0,0,0c-0.8,0.3-1.6,0.7-2.4,1
			c-0.3,0.2-0.6,0.4-0.9,0.6c-0.8,0.3-1.7,0.6-2.5,0.9c-0.3,0.2-0.6,0.4-0.9,0.6c-0.8,0.3-1.6,0.6-2.4,0.9c-0.9,0.5-1.9,1-2.8,1.5
			c-1.1,0.5-2.3,0.9-3.4,1.4c-0.3,0.1-0.5,0.3-0.8,0.4c-3.3,1.6-6.5,3.2-9.8,4.8c-1.2,0.6-2.3,1.3-3.5,1.9c-2.4,1.3-4.8,2.5-7.2,3.8
			c-2.1,1.2-4.1,2.4-6.1,3.8c-3,2.2-6.3,3.8-9.4,5.8c-2.8,1.8-5.6,3.6-8.3,5.5c-2.2,1.6-4.2,3.3-6.3,4.9c-0.7,0.5-1.3,1-2,1.5
			c-2.4,1.9-4.8,3.8-7.2,5.6c-0.6,0.5-1.3,1.1-1.9,1.6c-0.3,0.3-0.6,0.5-1,0.8c-0.6,0.5-1.3,1.1-1.9,1.6c-0.5,0.4-1,0.8-1.4,1.2
			c-0.6,0.6-1.3,1.1-1.9,1.7c-0.6,0.6-1.3,1.1-1.9,1.7c-0.8,0.7-1.6,1.4-2.4,2.1c-1.1,1.1-2.3,2.1-3.4,3.2c-2.1,2-4.2,4-6.2,6
			c-0.5,0.5-0.9,0.9-1.4,1.4c-2,2.1-4,4.2-6,6.2c-1,1.1-2.1,2.3-3.1,3.4c-0.7,0.8-1.4,1.6-2.1,2.4c-0.6,0.6-1.1,1.3-1.7,1.9
			c-0.5,0.6-1.1,1.3-1.6,1.9c-0.4,0.5-0.8,1-1.2,1.4c-0.5,0.6-1.1,1.3-1.6,1.9c-0.3,0.3-0.5,0.6-0.8,1c-0.5,0.6-1.1,1.3-1.6,1.9
			c-0.4,0.4-1,0.8-1.3,1.3c-3.3,4.3-6.7,8.5-9.7,12.9c-5.1,7.5-10.1,15.1-15,22.8c-2.1,3.3-3.7,6.9-5.6,10.3c-0.5,0.9-1,1.7-1.5,2.6
			c-1.1,2.1-2.3,4.2-3.3,6.3c-0.7,1.4-1.3,2.8-1.9,4.2c-0.4,0.8-0.8,1.6-1.2,2.4c-3.7,7.4-6.7,15.1-9.6,22.8
			c-3.7,9.8-6.6,19.8-9.3,29.9c-1.6,5.9-2.7,11.8-3.9,17.8c-0.7,3.5-1,7-1.5,10.6c-0.1,1-0.3,2-0.4,3c-0.1,0.1-0.2,0.2,0,0.4
			c-0.1,1-0.3,2-0.4,3c0,0.2-0.1,0.5-0.1,0.7c-0.1,1-0.3,2.1-0.4,3.1c0,0.3-0.1,0.6-0.1,0.8c-0.1,1.2-0.3,2.3-0.4,3.5
			c0,0.4-0.1,0.8-0.1,1.2c-0.1,1.4-0.3,2.7-0.4,4.1c0,0.4-0.1,0.9-0.1,1.3c-0.1,1.8-0.3,3.6-0.4,5.4c0,0.6-0.1,1.2-0.1,1.8
			c-0.1,3.1-0.3,6.2-0.4,9.3c0,5,0,9.9,0,14.9c0.1,3.1,0.3,6.2,0.4,9.2c0,0.6,0.1,1.2,0.1,1.8c0.1,1.8,0.3,3.6,0.4,5.4
			c0,0.4,0.1,0.9,0.1,1.3c0.1,1.3,0.3,2.7,0.4,4c0,0.3,0,0.5,0.1,0.8c0.1,1.2,0.3,2.4,0.4,3.6c0,0.4,0.1,0.8,0.1,1.2
			c0.1,1,0.3,2,0.4,3c0.5,3.6,0.8,7.2,1.4,10.8c1.1,6.2,2.1,12.5,3.5,18.6c2.7,11.5,5.9,22.8,10,33.9c3.6,10,7.8,19.8,12.4,29.3
			c4.1,8.5,8.7,16.8,13.6,24.9c4.7,7.8,9.8,15.5,15.4,22.8c3.1,4,6.1,8.1,9.3,12c2.8,3.4,5.8,6.5,8.7,9.8c0.5,0.6,1.1,1.2,1.6,1.9
			c1.5,1.6,3.1,3.2,4.6,4.9c3.2,3.2,6.5,6.5,9.7,9.7c1.6,1.5,3.2,3.1,4.9,4.6c0.6,0.5,1.2,1.1,1.9,1.6c2.6,2.3,5.1,4.8,7.8,6.9
			c6.4,5.1,12.9,10.3,19.5,15.1c9.6,7,19.8,13.3,30.3,18.8c6.7,3.6,13.6,6.9,20.5,10.1c8.1,3.8,16.5,6.9,24.9,9.8
			c8.4,2.9,17,5.4,25.7,7.5c5.6,1.4,11.4,2.4,17.1,3.5c3.1,0.6,6.2,1.1,9.4,1.6c3.8,0.5,7.5,0.9,11.3,1.3c1,0.1,2,0.2,3,0.4
			c0.6,0,1.2,0.1,1.8,0.1c1,0.1,2,0.2,3,0.3c0.9,0,1.8,0.1,2.7,0.1c1.3,0.1,2.7,0.2,4,0.4c1.2,0,2.4,0.1,3.6,0.1
			c2.2,0.1,4.3,0.2,6.5,0.4c5.9,0,11.9,0,17.8,0c2.2-0.1,4.3-0.2,6.5-0.4c1.2,0,2.4-0.1,3.6-0.1c1.4-0.1,2.7-0.2,4.1-0.4
			c0.9,0,1.8-0.1,2.7-0.1c1-0.1,2-0.2,3.1-0.3c0.6,0,1.2-0.1,1.7-0.1c1-0.1,2-0.2,3-0.4c1,0,1.9,0.1,2.9-0.1c6.7-1.1,13.3-2,20-3.3
			c12-2.2,23.9-5.1,35.5-9.2c5.3-1.9,10.7-3.6,16-5.6c7.5-2.9,14.9-6.1,22.1-9.6c5.2-2.5,10.4-5.3,15.4-8.1
			c5.6-3.1,11.1-6.4,16.5-9.8c5.5-3.6,10.8-7.4,16.1-11.2c4.1-3,8.1-6.1,12.1-9.3c3.2-2.6,6.3-5.5,9.4-8.2c0.6-0.5,1.2-1,1.8-1.5
			c1.5-1.4,3-2.9,4.5-4.3c1.2-1.1,2.5-2.3,3.7-3.4c1.5-1.5,3-3,4.5-4.5c1.1-1.2,2.3-2.5,3.4-3.7c1.4-1.5,2.9-3,4.3-4.4
			c0.5-0.6,1-1.2,1.5-1.8c5.2-6.2,10.7-12.1,15.6-18.5c35.5-47,55.5-99.9,60.1-158.6c1.1-13.7,1.1-27.5,0.2-41.2
			c-0.9-15.6-3.1-31-6.5-46.2c-9.5-42.4-27.3-80.9-53.5-115.6c-0.3-0.4-0.6-0.7-1-1c-0.5-0.6-1-1.2-1.5-1.8c-3-3.7-6.1-7.4-9.1-11.1
			c-0.7-0.8-1.3-1.6-2-2.3c-0.5-0.5-0.9-1-1.4-1.5c-0.7-0.8-1.3-1.5-2-2.3c-1.1-1.2-2.2-2.3-3.3-3.5c-1.5-1.6-2.9-3.1-4.4-4.7
			c-1.8-1.8-3.6-3.6-5.4-5.4c-1.6-1.5-3.1-2.9-4.7-4.4c-1-0.9-2-1.9-3-2.8c-0.9-0.8-1.9-1.6-2.8-2.4c-0.5-0.5-1-0.9-1.5-1.4
			c-0.8-0.6-1.6-1.3-2.3-1.9c-0.3-0.3-0.7-0.6-1-0.9c-0.8-0.6-1.6-1.3-2.3-1.9c-0.2-0.2-0.4-0.3-0.5-0.5c-0.6-0.5-1.2-1-1.9-1.5
			c-1.8-1.4-3.6-2.9-5.3-4.3c-0.6-0.5-1.2-0.9-1.9-1.4c-4-2.9-7.9-6-12.1-8.7c-7.3-4.8-14.7-9.3-22-13.9c-0.8-0.5-1.6-0.9-2.4-1.4
			c-0.9-0.5-1.9-1-2.8-1.5c-0.8-0.5-1.6-0.9-2.4-1.4c-4.2-2.1-8.4-4.2-12.6-6.3c-1.1-0.5-2.2-1-3.3-1.5c-0.7-0.3-1.3-0.6-2-0.9
			c-0.8-0.3-1.5-0.7-2.3-1c-1.5-0.6-2.9-1.2-4.4-1.9c-0.8-0.3-1.6-0.7-2.3-1c-1.6-0.6-3.2-1.3-4.8-1.9c-0.8-0.3-1.6-0.6-2.3-0.9
			c-0.5-0.2-1-0.4-1.5-0.5c-0.8-0.3-1.6-0.6-2.4-0.9c-4.8-1.6-9.7-3.2-14.5-4.9c-1.1-0.3-2.2-0.7-3.3-1c-2.8-0.7-5.6-1.5-8.4-2.2
			c-5.3-1.2-10.6-2.4-15.9-3.6c-2-0.5-4-0.9-6-1.4c-0.9-0.2-1.8-0.4-2.7-0.5c0,0,0,0,0,0c-1-0.2-1.9-0.3-2.9-0.5l0,0
			c-1-0.2-1.9-0.3-2.9-0.5l0,0c-1.1-0.2-2.2-0.3-3.3-0.5l0,0c-1.1-0.2-2.3-0.3-3.4-0.5l-0.1-0.1c0,0-0.1,0.1-0.1,0.1
			c-1.2-0.2-2.4-0.3-3.6-0.5l-0.2-0.1l-0.2,0.1c-1.3-0.1-2.7-0.3-4-0.4c-0.1-0.2-0.2-0.2-0.4,0c-1.6-0.1-3.3-0.3-4.9-0.4
			c-0.1-0.2-0.2-0.2-0.4,0c-2.1-0.2-4.2-0.3-6.3-0.5c-0.2,0-0.5,0-0.7,0c-3.4-0.2-6.9-0.3-10.3-0.5c-0.8,0-1.5,0-2.3,0
			c-3.4,0-6.8,0-10.3,0c-0.8,0-1.5,0-2.3,0c-3.4,0.2-6.9,0.3-10.3,0.5c-0.2,0-0.5,0-0.7,0c-2.1,0.2-4.2,0.3-6.3,0.5
			c-0.1-0.1-0.3-0.1-0.4,0c-1.6,0.1-3.3,0.3-4.9,0.4c-0.1-0.1-0.3-0.1-0.4,0c-1.3,0.1-2.7,0.3-4,0.4l-0.2-0.1l-0.2,0.1
			c-1.2,0.1-2.4,0.3-3.6,0.4l-0.2-0.1c0,0-0.1,0.1-0.1,0.1c-1.1,0.2-2.3,0.3-3.4,0.5c0,0,0,0,0,0c-1.1,0.2-2.2,0.3-3.3,0.5
			c0,0,0,0,0,0c-1,0.2-1.9,0.3-2.9,0.5l0,0c-1,0.2-1.9,0.3-2.9,0.5c0,0,0,0,0,0c-1,0.2-1.9,0.3-2.9,0.5c-2.3,0.5-4.7,1-7,1.4
			c-8,1.4-15.8,3.4-23.5,5.8c-6.8,2.1-13.4,4.4-20.2,6.7c-1.2,0.4-2.3,1-3.5,1.6C237.3,72.3,236.4,72.6,235.6,72.8z"/>
		<path class="st0" d="M0.5,332.6c0.3-0.8,0.6-1.6,0.9-2.4c-0.1,1.9-0.1,3.9-0.2,5.8c0,0.3-0.5,0.6-0.7,0.9
			C0.5,335.5,0.5,334,0.5,332.6z"/>
		<path class="st1" d="M1.4,372c-0.3-0.8-0.6-1.6-0.9-2.4c0-1.4,0-2.9,0-4.3c0.2,0.3,0.7,0.6,0.7,0.9C1.3,368.1,1.3,370,1.4,372z"/>
		<path class="st2" d="M346.1,0.4c-1.7,0.7-5,0.7-6.7,0C341.6,0.4,343.8,0.4,346.1,0.4z"/>
		<path class="st2" d="M352.9,0.9c-1.6,0-3.2,0.1-4.8,0c-0.5,0-1-0.3-1.5-0.5c2.1,0,4.2,0,6.2,0C352.8,0.6,352.8,0.7,352.9,0.9z"/>
		<path class="st3" d="M337.4,701.7c1.3-0.8,2.6-0.7,3.8,0C340,701.7,338.7,701.7,337.4,701.7z"/>
		<path class="st4" d="M0.5,342.2c0.8,1.1,0.8,2.2,0,3.4C0.5,344.4,0.5,343.3,0.5,342.2z"/>
		<path class="st4" d="M0.5,356.6c0.8,1.1,0.8,2.2,0,3.4C0.5,358.8,0.5,357.7,0.5,356.6z"/>
		<path class="st5" d="M352.9,0.9c0-0.1,0-0.3-0.1-0.4c1.1,0,2.2,0,3.4,0C355.2,1.4,354,0.8,352.9,0.9z"/>
		<path class="st4" d="M351.8,701.7c1-0.7,1.9-0.7,2.9,0C353.8,701.7,352.8,701.7,351.8,701.7z"/>
		<path class="st6" d="M332.2,701.3c0.6,0.1,1.3,0.3,1.9,0.4c-0.6,0-1.3,0-1.9,0C332.2,701.6,332.2,701.4,332.2,701.3z"/>
		<path class="st7" d="M333.6,0.8c-0.7,0-1.4,0.6-1.9-0.4c0.6,0,1.3,0,1.9,0C333.6,0.6,333.6,0.7,333.6,0.8z"/>
		<path class="st8" d="M691.3,364.8c0.1-0.6,0.3-1.3,0.4-1.9c0,0.6,0,1.3,0,1.9C691.5,364.8,691.4,364.8,691.3,364.8z"/>
		<path class="st9" d="M358.6,701.7c0.6-0.1,1.3-0.3,1.9-0.4c0,0.1,0,0.3,0,0.4C359.8,701.7,359.2,701.7,358.6,701.7z"/>
		<path class="st10" d="M333.6,0.8c0-0.1,0-0.3,0-0.4c0.5,0,1,0,1.4,0C334.6,0.6,334.1,0.7,333.6,0.8z"/>
		<path class="st11" d="M360.5,701.7c0-0.1,0-0.3,0-0.4c0.5,0,1.2-0.5,1.4,0.4C361.4,701.7,361,701.7,360.5,701.7z"/>
		<path class="st11" d="M361,0.4c-0.5,0.8-1,0.8-1.4,0C360,0.4,360.5,0.4,361,0.4z"/>
		<path class="st12" d="M691.7,367.6c-0.1-0.5-0.3-1-0.4-1.4c0.1,0,0.3,0,0.4,0C691.7,366.7,691.7,367.2,691.7,367.6z"/>
		<path class="st13" d="M691.7,366.2c-0.1,0-0.3,0-0.4,0c0-0.5,0-1,0-1.4c0.1,0,0.3,0,0.4,0C691.7,365.2,691.7,365.7,691.7,366.2z"
			/>
		<path class="st0" d="M691.3,335.9c0.1-0.5,0.3-1,0.4-1.4c0,0.5,0,1,0,1.4C691.5,336,691.4,336,691.3,335.9z"/>
		<path class="st14" d="M691.3,335.9c0.1,0,0.3,0,0.4,0c0,0.5,0,1,0,1.4c-0.1,0-0.3,0-0.4,0C691.3,336.9,691.3,336.4,691.3,335.9z"
			/>
		<path class="st15" d="M691.3,337.4c0.1,0,0.3,0,0.4,0c0,0.5,0,1,0,1.4C691.5,338.4,691.4,337.9,691.3,337.4z"/>
		<path class="st7" d="M332.2,701.3c0,0.1,0,0.3,0,0.4c-0.3,0-0.6,0-1,0C331.5,701.6,331.8,701.4,332.2,701.3z"/>
		<path d="M329.3,373.9c-0.2-0.2-0.3-0.4-0.5-0.5c-0.4-0.8-0.9-1.7-1.3-2.5c-0.5-0.6-1.1-1.2-1.6-1.8c-0.3-1-0.7-1.9-1-2.9
			c0-2.2,0-4.5,0-6.7c0-60.5,0-121,0-181.5c0-2.4,0-4.8,0-7.2c0.1-1.3,0.6-2.4,1.5-3.4c0.8-0.8,1.5-1.5,2.3-2.3
			c1.2-0.5,2.3-1,3.5-1.5c10.1,0,20.1,0,30.2,0c1,0.5,2,0.9,2.9,1.4c2.2,1.2,3.2,3.3,4.3,5.4c0.1,2.2,0.2,4.5,0.2,6.7
			c0,58.3,0,116.6,0,174.8c0,0.9,0.1,1.9,0.2,2.8c0.6,0.7,1.1,1.4,1.7,2c29,29,58,58,87,87c1.8,1.8,3.1,3.7,3.6,6.2
			c0.7,3.5,0,6.5-2.4,8.9c-5.2,5.4-10.6,10.7-15.9,16c-0.7,0.7-1.6,1.3-2.4,1.9c-2.5,0.6-5.1,0.7-7.7,0.4c-1.1-0.6-2.3-1.2-3.4-1.9
			c-0.2-0.3-0.3-0.5-0.5-0.8c-33.3-33.3-66.5-66.5-99.8-99.8C329.9,374.4,329.6,374.2,329.3,373.9z"/>
	</g>
</g>
</svg>
