<svg id="Layer_1" data-name="Layer 1" xmlns="http://www.w3.org/2000/svg" viewBox="0 0 700.8 700.8"><defs><style>.cls-1{fill:#101010;}.cls-2{fill:#aaa;}.cls-3{fill:#bfbfbf;}</style></defs><title>padlock</title><path d="M561.36-.24h1.44a4.3,4.3,0,0,0,1.13.53c3.77.65,7.6,1,11.32,1.92,32.48,7.69,56.11,37.67,56.11,71.05V219.6c4.84,0,9.39-.11,13.93,0a69.27,69.27,0,0,1,9.76.87,55.45,55.45,0,0,1,44.63,43.4c.34,1.7.59,3.42.88,5.13V651.12c-.23,1.48-.41,3-.7,4.43A55.74,55.74,0,0,1,653,700.08a3.49,3.49,0,0,0-.94.48H646.8a18.58,18.58,0,0,0-2.93-.46q-293.47,0-586.94,0a17.36,17.36,0,0,0-1.91,0,3.57,3.57,0,0,0-1,.46H48.24a13.49,13.49,0,0,0-2.32-.85,51.32,51.32,0,0,1-17-6.14c-16.18-9.41-25.55-23.44-28.23-42l-.37-3.86c0-.8.08-1.6.08-2.39q0-184,0-367.92c0-1.67,0-3.35-.08-5l.37-3.86c.33-1.81.61-3.62,1-5.42C7,238.18,29.78,219.68,55.25,219.6c4.4,0,8.8,0,13.2,0,.6,0,1.2-.11,1.87-.17v-3.06q0-71.12.05-142.24A66.76,66.76,0,0,1,71.45,61C77,33.65,92.81,14.81,118.76,4.55a64.77,64.77,0,0,1,16.49-4c.92-.11,2.09.27,2.75-.83h2.4c.73,1,1.75.45,2.62.45q207.49,0,415,0c.88,0,1.76,0,2.64,0C560.91.21,561.13-.08,561.36-.24Zm-1,219.78v-1.86q0-59.4,0-118.8a29.51,29.51,0,0,0-29.66-29.52q-179.88,0-359.75,0a30.36,30.36,0,0,0-4.76.39,29.43,29.43,0,0,0-24.8,29q0,59.26,0,118.55c0,.76,0,1.52.06,2.27ZM262.65,572.19H441.83q-22.15-67.89-44.21-135.43l2.69-2.49c20.28-19,26.88-47.78,16.78-73.21-11.26-28.35-40.72-46.63-73.09-42.9a67.52,67.52,0,0,0-42.34,20.89c-15.19,16-21.29,35.05-18,56.82,2.37,15.84,10,29,21.95,39.68l2.29,2C292.76,482.52,277.72,527.29,262.65,572.19Z" transform="translate(0.24 0.24)"/><path class="cls-1" d="M54,700.56a3.57,3.57,0,0,1,1-.46,17.36,17.36,0,0,1,1.91,0q293.48,0,586.94,0a18.58,18.58,0,0,1,2.93.46Z" transform="translate(0.24 0.24)"/><path class="cls-2" d="M561.36-.24c-.23.16-.45.45-.69.46-.88.06-1.76,0-2.64,0q-207.51,0-415,0c-.87,0-1.89.5-2.62-.45Z" transform="translate(0.24 0.24)"/><path class="cls-2" d="M.29,272.41c0,1.68.08,3.36.08,5q0,184,0,367.92c0,.79,0,1.59-.08,2.39H-.24V272.4Z" transform="translate(0.24 0.24)"/><path class="cls-3" d="M.29,272.41H-.24V270l.9-1.45Z" transform="translate(0.24 0.24)"/><path class="cls-3" d="M-.24,647.76H.29l.37,3.86-.9-1.45Z" transform="translate(0.24 0.24)"/></svg>