<svg id="Layer_1" data-name="Layer 1" xmlns="http://www.w3.org/2000/svg" viewBox="0 0 680.13 643.2"><defs><style>.cls-1{fill:#aaa;}.cls-2{fill:#101010;}.cls-3{fill:#fdfdfd;}.cls-4{fill:#545454;}.cls-5{fill:#9e9e9e;}.cls-6{fill:#969696;}.cls-7{fill:#444;}</style></defs><title>thumb</title><path class="cls-1" d="M-.24,281.52l.92-1c-.1,1.35-.29,2.69-.29,4q0,199.62,0,399.25c0,2.55.17,5.1.26,7.64l-.89-1Z" transform="translate(0.24 -57.84)"/><path class="cls-2" d="M152,700.62l-.12.42H11.28a3.32,3.32,0,0,0-.06-.44c1,0,2.07,0,3.11,0h133.4C149.17,700.56,150.61,700.6,152,700.62Z" transform="translate(0.24 -57.84)"/><path class="cls-3" d="M-.24,690.48l.89,1c1.36,4.71,4.23,7.93,9.1,9.16l.09.41H-.24Z" transform="translate(0.24 -57.84)"/><path class="cls-4" d="M334.32,57.84H401a1.44,1.44,0,0,0,0,.41c-.4,0-.8.07-1.2.07h-64c-.55,0-1.11-.06-1.67-.09Z" transform="translate(0.24 -57.84)"/><path class="cls-5" d="M334.32,57.84l-.06.39-1.9,0c0-.13,0-.27,0-.41Z" transform="translate(0.24 -57.84)"/><path class="cls-6" d="M401.09,58.25a1.44,1.44,0,0,1,0-.41H403a1.53,1.53,0,0,0,0,.43Z" transform="translate(0.24 -57.84)"/><path class="cls-7" d="M9.84,701l-.09-.41,1.47,0a3.32,3.32,0,0,1,.06.44Z" transform="translate(0.24 -57.84)"/><path d="M401.09,58.25l1.9,0a25.59,25.59,0,0,1,21.81,21,36.74,36.74,0,0,1,.37,6.21q0,64.08,0,128.16v3H493.6c-.53.7-.8,1.12-1.14,1.48a33.93,33.93,0,0,0-9.92,24.67q.1,28.56,0,57.12a34,34,0,0,0,12,26.88l1.06.88a11.38,11.38,0,0,0-1.7,1c-7.64,6.79-11.72,15.3-11.75,25.54q-.14,33.48,0,67c.06,11.37,4.89,20.49,13.94,27.37l1.22,1c-.66.52-1.14.89-1.62,1.28-8.53,6.91-13.1,15.78-13.13,26.81,0,22.56,0,45.12,0,67.68,0,11.31,4.48,20.41,13.21,27.5.31.25.63.48,1.1.84-.5.46-.93.87-1.39,1.25-8.45,7-12.91,15.89-12.91,26.92,0,19.28,0,38.56,0,57.84a33.76,33.76,0,0,0,11.34,26,6.43,6.43,0,0,0,1.23.7l-.37.66h-1.53Q392,687,290.89,687a47.73,47.73,0,0,1-45.34-34.28c-.23-.77-.43-1.54-.72-2.61H190a12.57,12.57,0,0,1-11.45-6.19,11.38,11.38,0,0,1-1.73-5.91c0-.72,0-1.44,0-2.16q0-175.2,0-350.4a21.89,21.89,0,0,1,.25-4.29c1.24-6,6.26-10,12.62-10s12.64-.05,19,0a4.35,4.35,0,0,0,3.52-1.53q48.06-50,96.2-99.91a5.48,5.48,0,0,0,1.71-4.21q-.08-40.8,0-81.6a25.41,25.41,0,0,1,18.54-24.82c1.23-.36,2.5-.55,3.74-.82l1.9,0c.56,0,1.12.09,1.67.09h64C400.29,58.32,400.69,58.27,401.09,58.25Z" transform="translate(0.24 -57.84)"/><path d="M11.22,700.6l-1.47,0C4.88,699.4,2,696.18.65,691.47c-.09-2.54-.26-5.09-.26-7.64q0-199.62,0-399.25c0-1.35.19-2.69.29-4,1.3-5,5.91-9.48,13.12-9.47q67.2.09,134.39,0c7.18,0,11.83,4.47,13.07,9.51a13.72,13.72,0,0,1,.31,2.12c.05.72,0,1.44,0,2.16q0,201.22,0,402.45a16.32,16.32,0,0,1-.62,5.19c-1.45,4.28-4.32,7.2-8.92,8.12-1.43,0-2.87-.06-4.31-.06H14.33C13.29,700.56,12.25,700.59,11.22,700.6Z" transform="translate(0.24 -57.84)"/><path d="M590.06,437.08H516.63c-7,0-12-3.28-15.11-9.52a16.54,16.54,0,0,1-1.45-7.47q0-32.4,0-64.79A16.4,16.4,0,0,1,505,343a15.64,15.64,0,0,1,10.54-4.55c.63,0,1.28,0,1.92,0q72.59,0,145.17,0a17.09,17.09,0,0,1,9,2.06A16,16,0,0,1,679.86,354c.06,1,0,1.92,0,2.88q0,31.67,0,63.35c0,5.64-2,10.28-6.56,13.72a16.08,16.08,0,0,1-10.08,3.19q-25.68-.06-51.36,0Z" transform="translate(0.24 -57.84)"/><path d="M571.49,561.84q-27.47,0-54.94,0a15.87,15.87,0,0,1-15.35-11.52,17.09,17.09,0,0,1-.69-4.71q-.06-33.83,0-67.65c0-8.89,6.58-15.72,15.56-16.3.79-.06,1.59,0,2.39,0q53.26,0,106.52,0a23.56,23.56,0,0,1,6.84.91,15.84,15.84,0,0,1,11,15.25c0,5.2,0,10.39,0,15.59q0,26,0,52.06A15.92,15.92,0,0,1,631.6,561a20,20,0,0,1-5.66.77Q598.71,561.89,571.49,561.84Z" transform="translate(0.24 -57.84)"/><path d="M564.36,226.18c15.83,0,31.67.06,47.51,0a16.11,16.11,0,0,1,15.41,11.77,19.38,19.38,0,0,1,.63,4.73q.06,28.8,0,57.59c0,7.84-4.73,14.1-12,16a18.8,18.8,0,0,1-4.74.55c-31.35,0-62.71,0-94.06.06a16.46,16.46,0,0,1-16.68-16.68c.1-19.2,0-38.39,0-57.59a16,16,0,0,1,12.31-16,19.51,19.51,0,0,1,4.52-.4Q540.84,226.15,564.36,226.18Z" transform="translate(0.24 -57.84)"/><path d="M550.23,676.22c-11.2,0-22.39-.07-33.59,0a16,16,0,0,1-15.41-11.44,19.8,19.8,0,0,1-.72-4.95q-.08-28.92,0-57.83a16,16,0,0,1,16.36-16.42c22.23,0,44.47,0,66.7,0a16.29,16.29,0,0,1,16.38,16.19q-.13,29.15,0,58.31a16.28,16.28,0,0,1-16.35,16.2C572.47,676.07,561.35,676.22,550.23,676.22Z" transform="translate(0.24 -57.84)"/></svg>